<svg xmlns="http://www.w3.org/2000/svg" xmlns:xlink="http://www.w3.org/1999/xlink" width="285" zoomAndPan="magnify" viewBox="0 0 213.75 63.749997" height="85" preserveAspectRatio="xMidYMid meet" version="1.0"><defs><g/><clipPath id="fccbd3a46a"><path d="M 59.832031 20.394531 L 80.414062 20.394531 L 80.414062 41.300781 L 59.832031 41.300781 Z M 59.832031 20.394531 " clip-rule="nonzero"/></clipPath><clipPath id="2b3d593602"><path d="M 25.433594 31.113281 L 60.96875 31.113281 L 60.96875 60.847656 L 25.433594 60.847656 Z M 25.433594 31.113281 " clip-rule="nonzero"/></clipPath></defs><path fill="#f2f2f2" d="M 30.851562 5.890625 C 44.351562 3.996094 45.445312 28.175781 32.953125 27.589844 C 22.910156 27.121094 19.117188 7.535156 30.851562 5.890625 " fill-opacity="1" fill-rule="evenodd"/><path fill="#f2f2f2" d="M 52.550781 5.890625 C 67.421875 2.644531 65.683594 29.058594 51.851562 27.589844 C 40.902344 26.425781 43.039062 7.964844 52.550781 5.890625 " fill-opacity="1" fill-rule="evenodd"/><path fill="#f2f2f2" d="M 25.953125 34.941406 C 20.664062 46.480469 4.550781 38.328125 6.351562 26.890625 C 8.25 14.839844 29.796875 20.984375 25.953125 34.941406 " fill-opacity="1" fill-rule="evenodd"/><g clip-path="url(#fccbd3a46a)"><path fill="#f2f2f2" d="M 69.703125 20.589844 C 73.179688 19.917969 77.527344 21.152344 79.152344 24.089844 C 83.628906 32.191406 75.375 42.097656 67.253906 41.238281 C 62.789062 40.769531 60.210938 36.972656 59.902344 33.539062 C 59.238281 26.1875 64.484375 21.601562 69.703125 20.589844 " fill-opacity="1" fill-rule="evenodd"/></g><g clip-path="url(#2b3d593602)"><path fill="#f2f2f2" d="M 39.601562 31.4375 C 51.867188 29.324219 63.125 38.160156 60.601562 53.136719 C 60.082031 56.238281 57.410156 60.621094 53.601562 60.839844 C 50.527344 61.015625 46.929688 58.019531 43.101562 58.039062 C 38.347656 58.0625 34.601562 62.277344 30.152344 60.140625 C 26.414062 58.34375 24.902344 51.078125 25.601562 45.789062 C 26.609375 38.167969 32.210938 32.714844 39.601562 31.4375 " fill-opacity="1" fill-rule="evenodd"/></g><g fill="#f2f2f2" fill-opacity="1"><g transform="translate(90.468744, 38.709299)"><g><path d="M 8.484375 0 L 4.765625 -12.125 L 4.671875 -12.125 C 4.804688 -9.65625 4.875 -8.007812 4.875 -7.1875 L 4.875 0 L 1.9375 0 L 1.9375 -15.453125 L 6.40625 -15.453125 L 10.0625 -3.640625 L 10.125 -3.640625 L 14 -15.453125 L 18.453125 -15.453125 L 18.453125 0 L 15.40625 0 L 15.40625 -7.3125 C 15.40625 -7.65625 15.410156 -8.050781 15.421875 -8.5 C 15.429688 -8.957031 15.476562 -10.15625 15.5625 -12.09375 L 15.46875 -12.09375 L 11.484375 0 Z M 8.484375 0 "/></g></g></g><g fill="#f2f2f2" fill-opacity="1"><g transform="translate(110.870179, 38.709299)"><g><path d="M 1.9375 0 L 1.9375 -15.453125 L 5.21875 -15.453125 L 5.21875 0 Z M 1.9375 0 "/></g></g></g><g fill="#f2f2f2" fill-opacity="1"><g transform="translate(118.033397, 38.709299)"><g><path d="M 11.0625 -4.296875 C 11.0625 -2.898438 10.554688 -1.796875 9.546875 -0.984375 C 8.546875 -0.179688 7.15625 0.21875 5.375 0.21875 C 3.71875 0.21875 2.257812 -0.09375 1 -0.71875 L 1 -3.765625 C 2.039062 -3.296875 2.921875 -2.96875 3.640625 -2.78125 C 4.359375 -2.59375 5.019531 -2.5 5.625 -2.5 C 6.34375 -2.5 6.890625 -2.632812 7.265625 -2.90625 C 7.648438 -3.175781 7.84375 -3.582031 7.84375 -4.125 C 7.84375 -4.4375 7.757812 -4.707031 7.59375 -4.9375 C 7.425781 -5.175781 7.175781 -5.40625 6.84375 -5.625 C 6.519531 -5.84375 5.851562 -6.191406 4.84375 -6.671875 C 3.90625 -7.109375 3.195312 -7.53125 2.71875 -7.9375 C 2.25 -8.351562 1.875 -8.832031 1.59375 -9.375 C 1.3125 -9.914062 1.171875 -10.550781 1.171875 -11.28125 C 1.171875 -12.644531 1.632812 -13.71875 2.5625 -14.5 C 3.488281 -15.28125 4.769531 -15.671875 6.40625 -15.671875 C 7.207031 -15.671875 7.972656 -15.570312 8.703125 -15.375 C 9.429688 -15.1875 10.191406 -14.921875 10.984375 -14.578125 L 9.9375 -12.03125 C 9.113281 -12.375 8.429688 -12.609375 7.890625 -12.734375 C 7.347656 -12.867188 6.816406 -12.9375 6.296875 -12.9375 C 5.679688 -12.9375 5.207031 -12.789062 4.875 -12.5 C 4.539062 -12.21875 4.375 -11.84375 4.375 -11.375 C 4.375 -11.09375 4.441406 -10.84375 4.578125 -10.625 C 4.710938 -10.40625 4.925781 -10.195312 5.21875 -10 C 5.507812 -9.800781 6.203125 -9.441406 7.296875 -8.921875 C 8.734375 -8.222656 9.71875 -7.523438 10.25 -6.828125 C 10.789062 -6.140625 11.0625 -5.296875 11.0625 -4.296875 Z M 11.0625 -4.296875 "/></g></g></g><g fill="#f2f2f2" fill-opacity="1"><g transform="translate(129.950962, 38.709299)"><g/></g></g><g fill="#f2f2f2" fill-opacity="1"><g transform="translate(135.571658, 38.709299)"><g><path d="M 5.21875 -8.171875 L 6.296875 -8.171875 C 7.304688 -8.171875 8.0625 -8.367188 8.5625 -8.765625 C 9.0625 -9.171875 9.3125 -9.753906 9.3125 -10.515625 C 9.3125 -11.285156 9.097656 -11.851562 8.671875 -12.21875 C 8.253906 -12.582031 7.597656 -12.765625 6.703125 -12.765625 L 5.21875 -12.765625 Z M 12.609375 -10.625 C 12.609375 -8.96875 12.085938 -7.695312 11.046875 -6.8125 C 10.015625 -5.9375 8.539062 -5.5 6.625 -5.5 L 5.21875 -5.5 L 5.21875 0 L 1.9375 0 L 1.9375 -15.453125 L 6.875 -15.453125 C 8.75 -15.453125 10.171875 -15.046875 11.140625 -14.234375 C 12.117188 -13.429688 12.609375 -12.226562 12.609375 -10.625 Z M 12.609375 -10.625 "/></g></g></g><g fill="#f2f2f2" fill-opacity="1"><g transform="translate(149.158528, 38.709299)"><g><path d="M 10.84375 0 L 1.9375 0 L 1.9375 -15.453125 L 10.84375 -15.453125 L 10.84375 -12.765625 L 5.21875 -12.765625 L 5.21875 -9.375 L 10.453125 -9.375 L 10.453125 -6.6875 L 5.21875 -6.6875 L 5.21875 -2.703125 L 10.84375 -2.703125 Z M 10.84375 0 "/></g></g></g><g fill="#f2f2f2" fill-opacity="1"><g transform="translate(161.276832, 38.709299)"><g><path d="M 5.21875 -8.59375 L 6.28125 -8.59375 C 7.3125 -8.59375 8.070312 -8.765625 8.5625 -9.109375 C 9.0625 -9.453125 9.3125 -9.992188 9.3125 -10.734375 C 9.3125 -11.460938 9.054688 -11.984375 8.546875 -12.296875 C 8.046875 -12.609375 7.269531 -12.765625 6.21875 -12.765625 L 5.21875 -12.765625 Z M 5.21875 -5.921875 L 5.21875 0 L 1.9375 0 L 1.9375 -15.453125 L 6.453125 -15.453125 C 8.546875 -15.453125 10.09375 -15.066406 11.09375 -14.296875 C 12.101562 -13.535156 12.609375 -12.378906 12.609375 -10.828125 C 12.609375 -9.910156 12.359375 -9.097656 11.859375 -8.390625 C 11.359375 -7.679688 10.65625 -7.128906 9.75 -6.734375 C 12.070312 -3.253906 13.582031 -1.007812 14.28125 0 L 10.65625 0 L 6.96875 -5.921875 Z M 5.21875 -5.921875 "/></g></g></g><g fill="#f2f2f2" fill-opacity="1"><g transform="translate(175.561006, 38.709299)"><g><path d="M 5.21875 -8.59375 L 6.28125 -8.59375 C 7.3125 -8.59375 8.070312 -8.765625 8.5625 -9.109375 C 9.0625 -9.453125 9.3125 -9.992188 9.3125 -10.734375 C 9.3125 -11.460938 9.054688 -11.984375 8.546875 -12.296875 C 8.046875 -12.609375 7.269531 -12.765625 6.21875 -12.765625 L 5.21875 -12.765625 Z M 5.21875 -5.921875 L 5.21875 0 L 1.9375 0 L 1.9375 -15.453125 L 6.453125 -15.453125 C 8.546875 -15.453125 10.09375 -15.066406 11.09375 -14.296875 C 12.101562 -13.535156 12.609375 -12.378906 12.609375 -10.828125 C 12.609375 -9.910156 12.359375 -9.097656 11.859375 -8.390625 C 11.359375 -7.679688 10.65625 -7.128906 9.75 -6.734375 C 12.070312 -3.253906 13.582031 -1.007812 14.28125 0 L 10.65625 0 L 6.96875 -5.921875 Z M 5.21875 -5.921875 "/></g></g></g><g fill="#f2f2f2" fill-opacity="1"><g transform="translate(189.84518, 38.709299)"><g><path d="M 1.9375 0 L 1.9375 -15.453125 L 5.21875 -15.453125 L 5.21875 0 Z M 1.9375 0 "/></g></g></g><g fill="#f2f2f2" fill-opacity="1"><g transform="translate(197.008398, 38.709299)"><g><path d="M 11.0625 -4.296875 C 11.0625 -2.898438 10.554688 -1.796875 9.546875 -0.984375 C 8.546875 -0.179688 7.15625 0.21875 5.375 0.21875 C 3.71875 0.21875 2.257812 -0.09375 1 -0.71875 L 1 -3.765625 C 2.039062 -3.296875 2.921875 -2.96875 3.640625 -2.78125 C 4.359375 -2.59375 5.019531 -2.5 5.625 -2.5 C 6.34375 -2.5 6.890625 -2.632812 7.265625 -2.90625 C 7.648438 -3.175781 7.84375 -3.582031 7.84375 -4.125 C 7.84375 -4.4375 7.757812 -4.707031 7.59375 -4.9375 C 7.425781 -5.175781 7.175781 -5.40625 6.84375 -5.625 C 6.519531 -5.84375 5.851562 -6.191406 4.84375 -6.671875 C 3.90625 -7.109375 3.195312 -7.53125 2.71875 -7.9375 C 2.25 -8.351562 1.875 -8.832031 1.59375 -9.375 C 1.3125 -9.914062 1.171875 -10.550781 1.171875 -11.28125 C 1.171875 -12.644531 1.632812 -13.71875 2.5625 -14.5 C 3.488281 -15.28125 4.769531 -15.671875 6.40625 -15.671875 C 7.207031 -15.671875 7.972656 -15.570312 8.703125 -15.375 C 9.429688 -15.1875 10.191406 -14.921875 10.984375 -14.578125 L 9.9375 -12.03125 C 9.113281 -12.375 8.429688 -12.609375 7.890625 -12.734375 C 7.347656 -12.867188 6.816406 -12.9375 6.296875 -12.9375 C 5.679688 -12.9375 5.207031 -12.789062 4.875 -12.5 C 4.539062 -12.21875 4.375 -11.84375 4.375 -11.375 C 4.375 -11.09375 4.441406 -10.84375 4.578125 -10.625 C 4.710938 -10.40625 4.925781 -10.195312 5.21875 -10 C 5.507812 -9.800781 6.203125 -9.441406 7.296875 -8.921875 C 8.734375 -8.222656 9.71875 -7.523438 10.25 -6.828125 C 10.789062 -6.140625 11.0625 -5.296875 11.0625 -4.296875 Z M 11.0625 -4.296875 "/></g></g></g></svg>