<svg xmlns="http://www.w3.org/2000/svg" xmlns:xlink="http://www.w3.org/1999/xlink" width="40" zoomAndPan="magnify" viewBox="0 0 30 30.000001" height="40" preserveAspectRatio="xMidYMid meet" version="1.0"><defs><clipPath id="6315114059"><path d="M 21.640625 10.167969 L 29.515625 10.167969 L 29.515625 18.167969 L 21.640625 18.167969 Z M 21.640625 10.167969 " clip-rule="nonzero"/></clipPath><clipPath id="aa5274c69a"><path d="M 8.476562 14.269531 L 22.074219 14.269531 L 22.074219 25.648438 L 8.476562 25.648438 Z M 8.476562 14.269531 " clip-rule="nonzero"/></clipPath></defs><path fill="#f2f2f2" d="M 10.550781 4.617188 C 15.714844 3.890625 16.132812 13.144531 11.351562 12.921875 C 7.507812 12.742188 6.058594 5.246094 10.550781 4.617188 " fill-opacity="1" fill-rule="evenodd"/><path fill="#f2f2f2" d="M 18.851562 4.617188 C 24.542969 3.375 23.878906 13.484375 18.585938 12.921875 C 14.394531 12.476562 15.210938 5.410156 18.851562 4.617188 " fill-opacity="1" fill-rule="evenodd"/><path fill="#f2f2f2" d="M 8.675781 15.734375 C 6.652344 20.152344 0.484375 17.03125 1.175781 12.652344 C 1.898438 8.042969 10.144531 10.394531 8.675781 15.734375 " fill-opacity="1" fill-rule="evenodd"/><g clip-path="url(#6315114059)"><path fill="#f2f2f2" d="M 25.417969 10.242188 C 26.746094 9.984375 28.410156 10.457031 29.03125 11.582031 C 30.746094 14.683594 27.589844 18.472656 24.480469 18.144531 C 22.769531 17.964844 21.785156 16.511719 21.667969 15.199219 C 21.414062 12.382812 23.421875 10.628906 25.417969 10.242188 " fill-opacity="1" fill-rule="evenodd"/></g><g clip-path="url(#aa5274c69a)"><path fill="#f2f2f2" d="M 13.898438 14.394531 C 18.589844 13.585938 22.898438 16.964844 21.933594 22.699219 C 21.734375 23.882812 20.714844 25.5625 19.253906 25.644531 C 18.078125 25.710938 16.703125 24.566406 15.238281 24.574219 C 13.417969 24.582031 11.984375 26.195312 10.28125 25.378906 C 8.851562 24.691406 8.273438 21.910156 8.539062 19.886719 C 8.925781 16.96875 11.070312 14.882812 13.898438 14.394531 " fill-opacity="1" fill-rule="evenodd"/></g></svg>